<?xml version="1.0" encoding="utf-8"?>
<!-- Generator: Adobe Illustrator 25.2.1, SVG Export Plug-In . SVG Version: 6.00 Build 0)  -->
<svg version="1.1" id="Calque_1" xmlns="http://www.w3.org/2000/svg" xmlns:xlink="http://www.w3.org/1999/xlink" x="0px" y="0px"
	 width="596px" height="459.9px" viewBox="0 0 596 459.9" style="enable-background:new 0 0 596 459.9;" xml:space="preserve">
<style type="text/css">
	.st0{fill:#F095B5;}
	.st1{fill:#FFFFFF;}
	.st2{fill:#7FC295;}
	.st3{fill:#0098D8;}
	.st4{fill:#E4C300;}
	.st5{fill:#F2A5C8;}
	.st6{fill:#0076BB;}
</style>
<g>
	<path class="st0" d="M530.8,391.1l-280.9,59.7c-3.2,0.7-6.8-1.1-8-3.9l-29.2-70.3c-1.2-2.8,5.1-16.5,8.4-17.2l276.3-48.9
		c3.2-0.7,4.4,1.1,5.6,3.9l28.1,65.2C532.1,382.4,534,390.4,530.8,391.1z"/>
	<g>
		<path class="st1" d="M526.9,384.2l-275.6,58.5c-3.2,0.7-6.8-1.1-8-3.9l-29.6-71.3c-1.2-2.8,0.5-5.7,3.7-6.4L493,302.6
			c3.2-0.7,6.8,1.1,8,3.9l29.6,71.3C531.8,380.6,530.1,383.5,526.9,384.2z"/>
		<path d="M249.9,444.1c-3.3,0-6.5-1.9-7.7-4.8L212.5,368c-0.7-1.6-0.6-3.4,0.2-4.9c0.8-1.6,2.5-2.8,4.4-3.2l275.6-58.5
			c3.8-0.8,8,1.3,9.4,4.6l29.6,71.3c0.7,1.6,0.6,3.4-0.2,4.9c-0.8,1.6-2.5,2.8-4.4,3.2l0,0l-275.6,58.5
			C251,444,250.4,444.1,249.9,444.1z M494.4,303.6c-0.4,0-0.8,0-1.2,0.1l-275.6,58.5c-1.3,0.3-2.3,1-2.8,1.9
			c-0.4,0.8-0.5,1.8-0.1,2.8l29.6,71.3c1,2.3,4,3.7,6.6,3.2L526.6,383c1.3-0.3,2.3-1,2.8-1.9c0.4-0.8,0.5-1.8,0.1-2.8L499.9,307
			C499,305,496.7,303.6,494.4,303.6z"/>
	</g>
	<g>
		<path d="M1078.2,272L581.6,377.5c-3.2,0.7-6.8-1.1-8-3.9l-29.2-70.3c-1.2-2.8,5.9-20.6,9.2-21.3l491.2-90.6c3.2-0.7,6.8,1.1,8,3.9
			l32.6,55.2C1086.5,253.4,1081.4,271.3,1078.2,272z"/>
		<path class="st1" d="M580.1,378.1c-3,0-5.9-1.7-7-4.3l-29.2-70.3c-0.9-2.3,2.5-11.4,5.1-16.5c1.8-3.3,3.2-5.1,4.3-5.4l491.3-90.6
			c3.4-0.7,7.2,1.1,8.5,4.2l32.6,55.1c1.1,2.5-2,14-4.7,19.1c-1,1.9-1.9,2.9-2.7,3.1l-0.1-0.4l0.1,0.4L581.6,377.9
			C581.1,378,580.6,378.1,580.1,378.1z M1046.1,191.7c-0.5,0-0.9,0-1.4,0.1l-491.2,90.6c-0.3,0.1-1.5,0.6-3.8,5
			c-3.1,5.9-5.8,14.2-5.1,15.8l29.2,70.3c1.1,2.7,4.5,4.3,7.6,3.7L1078,271.7c0.3-0.1,1-0.4,2.2-2.7c2.9-5.5,5.5-16.4,4.7-18.3
			l-32.6-55.1C1051.4,193.2,1048.8,191.7,1046.1,191.7z"/>
	</g>
	<path class="st2" d="M1081.6,256.9L590.3,361.3c-3.2,0.7-6.8-1.1-8-3.9l-29.6-71.3c-1.2-2.8,0.5-5.7,3.7-6.4l491.3-104.4
		c3.2-0.7,6.8,1.1,8,3.9l29.6,71.3C1086.5,253.4,1084.8,256.2,1081.6,256.9z"/>
	<g>
		<path d="M567.4,242l-103,21.9c-3.2,0.7-6.8-1.1-8-3.9l-29.2-70.3c-1.2-2.8,5.9-20.6,9.2-21.3l97.5-7c3.2-0.7,6.8,1.1,8,3.9
			l31.8,56.8C574.9,225,570.7,241.3,567.4,242z"/>
		<path class="st1" d="M463,264.5c-3,0-5.9-1.7-7-4.3l-29.2-70.3c-0.9-2.3,2.5-11.4,5.1-16.5c1.8-3.3,3.2-5.1,4.3-5.4l97.6-7
			c3.4-0.7,7.2,1.1,8.4,4.2L574,222c1,2.4-1.3,12.6-4,17.6c-0.9,1.8-1.8,2.7-2.6,2.9l-103,21.9C464,264.4,463.5,264.5,463,264.5z
			 M535.4,161.7c-0.5,0-0.9,0-1.4,0.1l-97.6,7c-0.3,0.1-1.5,0.6-3.7,5c-3.1,5.9-5.8,14.2-5.1,15.8l29.2,70.3
			c1.1,2.7,4.5,4.3,7.6,3.7l103-21.9c0.3-0.1,1-0.5,2.1-2.5c2.6-5,4.8-14.9,4-16.9l-31.8-56.8C540.6,163.2,538,161.7,535.4,161.7z"
			/>
	</g>
	<path class="st3" d="M570.8,226.9l-97.6,20.7c-3.2,0.7-6.8-1.1-8-3.9l-29.6-71.3c-1.2-2.8,0.5-5.7,3.7-6.4l97.6-20.7
		c3.2-0.7,6.8,1.1,8,3.9l29.6,71.3C575.8,223.3,574.1,226.2,570.8,226.9z"/>
	<g>
		<path d="M417.5,276.2l-103,21.9c-3.2,0.7-6.8-1.1-8-3.9l-29.2-70.3c-1.2-2.8,5.9-20.6,9.2-21.3l97.5-7c3.2-0.7,6.8,1.1,8,3.9
			l32.6,56C425.9,258.3,420.7,275.5,417.5,276.2z"/>
		<path class="st1" d="M313.1,298.6c-3,0-5.9-1.7-7-4.3L276.9,224c-0.9-2.3,2.5-11.4,5.1-16.5c1.8-3.3,3.2-5.1,4.3-5.4l97.6-7
			c3.4-0.7,7.2,1.1,8.4,4.2l32.6,56c1,2.5-1.9,13-4.5,18c-1.1,2-2,3.1-2.9,3.3l-103,21.9C314.1,298.6,313.6,298.6,313.1,298.6z
			 M385.5,195.8c-0.5,0-0.9,0-1.4,0.1l-97.6,7c-0.3,0.1-1.5,0.6-3.7,5c-3.1,5.9-5.8,14.2-5.1,15.8l29.2,70.3
			c1.1,2.7,4.5,4.3,7.6,3.7l103-21.9c0.3-0.1,1.1-0.5,2.3-2.9c2.9-5.5,5.3-15.4,4.5-17.3l-32.6-56
			C390.7,197.4,388.1,195.8,385.5,195.8z"/>
	</g>
	<path class="st4" d="M420.9,261.1l-97.6,20.7c-3.2,0.7-6.8-1.1-8-3.9l-29.6-71.3c-1.2-2.8,0.5-5.7,3.7-6.4l97.6-20.7
		c3.2-0.7,6.8,1.1,8,3.9l29.6,71.3C425.9,257.5,424.2,260.4,420.9,261.1z"/>
	<g>
		<path d="M266.9,308.7l-103,21.9c-3.2,0.7-6.8-1.1-8-3.9l-29.2-70.3c-1.2-2.8,5.9-20.6,9.2-21.3l97.5-7c3.2-0.7,6.8,1.1,8,3.9
			l32.6,56.8C275.2,291.6,270.1,308,266.9,308.7z"/>
		<path class="st1" d="M162.5,331.1c-3,0-5.9-1.7-7-4.3l-29.2-70.3c-0.9-2.3,2.5-11.4,5.1-16.5c1.8-3.3,3.2-5.1,4.3-5.4l97.6-7
			c3.4-0.7,7.2,1.1,8.4,4.2l32.6,56.8c1,2.4-1.7,12-4.3,17c-1.1,2.2-2.2,3.3-3.1,3.5L164,331C163.5,331.1,163,331.1,162.5,331.1z
			 M234.8,228.3c-0.5,0-0.9,0-1.4,0.1l-97.6,7c-0.3,0.1-1.5,0.6-3.7,5c-3.1,5.9-5.8,14.2-5.1,15.8l29.2,70.3
			c1.1,2.7,4.5,4.3,7.6,3.7l103-21.9c0.3-0.1,1.2-0.5,2.5-3.1c2.7-5.1,5.1-14.3,4.3-16.2L241,232.2
			C240.1,229.8,237.5,228.3,234.8,228.3z"/>
	</g>
	<path class="st2" d="M270.3,293.6l-97.6,20.7c-3.2,0.7-6.8-1.1-8-3.9L135,239.1c-1.2-2.8,0.5-5.7,3.7-6.4l97.6-20.7
		c3.2-0.7,6.8,1.1,8,3.9l29.6,71.3C275.2,290,273.5,292.9,270.3,293.6z"/>
	<g>
		<path d="M370.8,161.1l-173.1,36.8c-3.2,0.7-6.8-1.1-8-3.9l-29.2-70.3c-1.2-2.8,5.9-20.6,9.2-21.3l167.6-21.9
			c3.2-0.7,6.8,1.1,8,3.9l31.8,55.2C378.3,142.4,374,160.4,370.8,161.1z"/>
		<path class="st1" d="M196.3,198.4c-3,0-5.9-1.7-7-4.3l-29.2-70.3c-0.9-2.3,2.5-11.4,5.1-16.5c1.8-3.3,3.2-5.1,4.3-5.4L337.2,80
			c3.4-0.7,7.2,1.1,8.5,4.2l31.8,55.1c1,2.5-1.6,14.5-4.3,19.6c-0.8,1.6-1.6,2.4-2.4,2.6l-173.1,36.8
			C197.3,198.3,196.8,198.4,196.3,198.4z M338.7,80.7c-0.5,0-0.9,0-1.4,0.1l-167.7,21.9c-0.3,0.1-1.5,0.6-3.8,5
			c-3.1,5.9-5.8,14.2-5.1,15.8l29.2,70.3c1.1,2.7,4.5,4.3,7.6,3.7l173.1-36.8c0.3-0.1,0.9-0.4,1.8-2.1c2.7-5.2,5.1-16.8,4.2-18.8
			L345,84.5C344,82.2,341.4,80.7,338.7,80.7z"/>
	</g>
	<path class="st0" d="M374.2,145.9l-167.7,35.6c-3.2,0.7-6.8-1.1-8-3.9l-29.6-71.3c-1.2-2.8,0.5-5.7,3.7-6.4l167.7-35.6
		c3.2-0.7,6.8,1.1,8,3.9l29.6,71.3C379.1,142.4,377.4,145.3,374.2,145.9z"/>
	<g>
		<g>
			<path d="M722.9,208.6l-103,21.9c-3.2,0.7-6.8-1.1-8-3.9l-29.2-70.3c-1.2-2.8,5.1-19.8,8.4-20.5l98.4-7.8c3.2-0.7,6.8,1.1,8,3.9
				l32.6,55.2C731.2,190,726.1,208,722.9,208.6z"/>
			<path class="st1" d="M618.5,231.1c-3,0-5.9-1.7-7-4.3l-29.2-70.3c-0.9-2.2,1.9-11,4.8-16.4c1.5-2.8,2.8-4.4,3.9-4.6l98.4-7.8
				c3.4-0.7,7.2,1.1,8.4,4.2l32.6,55.1c1.1,2.5-2,14-4.7,19.1c-1,1.9-1.9,2.9-2.7,3.1l-103,21.9C619.5,231,619,231.1,618.5,231.1z
				 M690.8,128.3c-0.5,0-0.9,0-1.4,0.1l-98.4,7.8c-0.3,0.1-1.4,0.6-3.2,4.2c-3,5.6-5.5,14-4.8,15.7l29.2,70.3
				c1.1,2.7,4.5,4.3,7.6,3.7l103-21.9c0.3-0.1,1-0.4,2.2-2.7c2.9-5.5,5.5-16.4,4.7-18.3l-32.6-55.1
				C696.1,129.8,693.5,128.3,690.8,128.3z"/>
		</g>
		<path class="st5" d="M726.3,193.5l-97.6,20.7c-3.2,0.7-6.8-1.1-8-3.9L591,139.1c-1.2-2.8,0.5-5.7,3.7-6.4l97.6-20.7
			c3.2-0.7,6.8,1.1,8,3.9l29.6,71.3C731.2,190,729.5,192.8,726.3,193.5z"/>
	</g>
	<g>
		<g>
			<path d="M685.4,97.5l-103,21.9c-3.2,0.7-6.8-1.1-8-3.9l-29.2-70.3c-1.2-2.8,5.1-16.5,8.4-17.2L652,16.9c3.2-0.7,6.8,1.1,8,3.9
				L692.5,76C693.7,78.8,688.6,96.8,685.4,97.5z"/>
			<path class="st1" d="M580.9,120c-3,0-5.9-1.7-7-4.3l-29.2-70.3c-0.8-1.8,1.1-7.1,3.3-11.3c0.9-1.8,3.3-6,5.3-6.4l98.4-11.1
				c3.4-0.7,7.2,1.1,8.5,4.2l32.6,55.1c1.1,2.5-2,14-4.7,19.1c-1,1.9-1.9,2.9-2.7,3.1l-0.1-0.4l0.1,0.4l-103,21.9
				C582,119.9,581.4,120,580.9,120z M653.3,17.2c-0.5,0-0.9,0-1.4,0.1l-98.4,11.1c-1.1,0.2-2.9,2.5-4.7,6c-2.4,4.5-3.9,9.3-3.3,10.7
				l29.2,70.3c1.1,2.7,4.5,4.3,7.6,3.7l103-21.9c0.3-0.1,1-0.4,2.2-2.7c2.9-5.5,5.5-16.4,4.7-18.3L659.5,21
				C658.6,18.7,655.9,17.2,653.3,17.2z"/>
		</g>
		<path class="st4" d="M688.8,82.4l-97.6,20.7c-3.2,0.7-6.8-1.1-8-3.9L553.5,28c-1.2-2.8,0.5-5.7,3.7-6.4l97.6-20.7
			c3.2-0.7,6.8,1.1,8,3.9L692.5,76C693.7,78.8,692,81.7,688.8,82.4z"/>
	</g>
	<g>
		<path d="M523.7,129l-103,21.9c-3.2,0.7-6.8-1.1-8-3.9l-29.2-70.3c-1.2-2.8,5.1-16.5,8.4-17.2l98.4-11.1c3.2-0.7,6.8,1.1,8,3.9
			l32.6,56.8C532.1,111.9,527,128.3,523.7,129z"/>
		<path class="st1" d="M419.3,151.4c-3,0-5.9-1.7-7-4.3l-29.2-70.3c-0.8-1.8,1.1-7.1,3.3-11.3c0.9-1.8,3.3-6,5.3-6.4L490.1,48
			c3.4-0.7,7.2,1.1,8.5,4.2l32.6,56.8c1,2.4-1.7,12-4.3,17c-1.1,2.2-2.2,3.3-3.1,3.5l-103,21.9C420.3,151.4,419.8,151.4,419.3,151.4
			z M491.7,48.6c-0.5,0-0.9,0-1.4,0.1l-98.4,11.1c-1.1,0.2-2.9,2.5-4.7,6c-2.4,4.5-3.9,9.3-3.3,10.7l29.2,70.3
			c1.1,2.7,4.5,4.3,7.6,3.7l103-21.9c0.3-0.1,1.2-0.5,2.5-3.1c2.7-5.1,5.1-14.3,4.3-16.2l-32.6-56.8
			C496.9,50.1,494.3,48.6,491.7,48.6z"/>
	</g>
	<path class="st2" d="M527.2,113.9l-97.6,20.7c-3.2,0.7-6.8-1.1-8-3.9L392,59.4c-1.2-2.8,0.5-5.7,3.7-6.4l97.6-20.7
		c3.2-0.7,6.8,1.1,8,3.9l29.6,71.3C532.1,110.3,530.4,113.2,527.2,113.9z"/>
	<g>
		<g>
			<path d="M286.6,412.5c-0.7,0.6-2.1,1.2-3.8,1.6c-3.4,0.7-6.1-0.3-9-2.8l-3.7-3.1l-0.6,0.1c-1,0.2-2,0.4-3,0.5l3.1,7.5l-8.5,1.8
				L250.3,392l13.1-2.8c7.5-1.6,13.1,0.8,15.4,6.5c1.5,3.7,1.1,6.7-1.2,8.9l2.1,1.5c1.2,0.8,2,0.9,2.8,0.7c0.4-0.1,0.9-0.3,1.1-0.4
				L286.6,412.5z M263.9,402.7c0.9-0.1,1.9-0.3,2.8-0.5c3.3-0.7,4.7-2,3.9-4.1c-0.7-1.9-2.7-2.6-5.4-2l-3.7,0.8L263.9,402.7z"/>
			<path d="M310.1,405.2c-1.7,2.2-4.2,4-9.6,5.1c-6.9,1.5-12.9-0.7-15.6-7.3c-2.7-6.4,0-11.9,8-13.7c6.1-1.3,10.2,0.7,11.7,4.2
				c1.9,4.3-1.2,7.6-9.7,9.7c1.3,1,2.6,1,4.5,0.6c2-0.4,3.9-1.3,5.3-2.9L310.1,405.2z M292.5,399.2c3.1-0.8,5.2-1.6,4.6-3.1
				c-0.3-0.8-1.3-1.1-2.5-0.8C292.8,395.6,291.9,397,292.5,399.2z"/>
			<path d="M333.8,391.9c2.8,6.8,0.1,11.4-5.3,12.6c-2.9,0.6-5.5,0.2-7.7-1.3l0.7,2.1l-7.5,1.6l-11.9-28.6l8.4-1.8l4.5,10.8
				c0.8-1.8,2.6-3,5-3.5C325.6,382.6,331.1,385.4,333.8,391.9z M320,390.6c-1.6,0.3-2.4,1.3-2.5,2.7l1.6,3.9c1,1.4,2.6,1.8,4.3,1.4
				c2.2-0.5,3-2.1,2-4.8C324.4,391.2,322.2,390.2,320,390.6z"/>
			<path d="M336.1,391.7c-2.6-6.2,0.5-11.5,8-13.1s13.6,1.3,16.3,7.7c2.6,6.2-0.5,11.5-8,13.1C345,401,338.8,398.2,336.1,391.7z
				 M352.1,388.2c-1-2.5-3.1-3.7-5.4-3.2c-2.5,0.5-3.2,2.3-2.2,4.8c1.1,2.6,3,3.7,5.5,3.2C352.4,392.5,353.2,390.8,352.1,388.2z"/>
			<path d="M362.5,386.1c-2.6-6.2,0.5-11.5,8-13.1s13.6,1.2,16.3,7.7c2.6,6.2-0.5,11.5-8,13.1C371.3,395.4,365.2,392.6,362.5,386.1z
				 M378.5,382.6c-1-2.5-3.1-3.7-5.4-3.2c-2.5,0.5-3.2,2.3-2.2,4.8c1.1,2.6,3,3.7,5.5,3.2C378.8,386.9,379.6,385.2,378.5,382.6z"/>
			<path d="M411.4,384.2c-1.1,2-3.4,3.4-6.4,4.1c-5.3,1.1-9.7-0.1-11.9-5.4l-2.8-6.8l-3.6,0.8l-2.4-5.8c3.3-1,4.2-2,2.8-6.3l7-1.5
				l2.1,5.1l6.4-1.4l2.4,5.9l-6.4,1.4l2.2,5.3c0.6,1.5,1.8,1.8,3.2,1.4c1-0.2,1.5-0.6,2-1.3L411.4,384.2z"/>
			<path d="M414.5,381.2c-1.1-2.6,0.4-5,3.3-5.6s5.8,0.8,6.8,3.4s-0.3,5-3.1,5.6C418.7,385.3,415.6,383.9,414.5,381.2z M409.2,366.1
				l-4-9.7l8.3-1.8l4,9.7l2.9,8.8l-7,1.5L409.2,366.1z"/>
		</g>
	</g>
	<g>
		<path d="M181.6,286.3c1.1,2.7-0.1,4.4-2.2,4.8c-1.1,0.2-2.1,0.1-2.9-0.4l1.6,3.8l-1.8,0.4l-4.3-10.5l1.6-0.3l0.6,1.1
			c0.2-0.9,0.9-1.7,2.2-2C178.5,282.8,180.5,283.7,181.6,286.3z M176.5,284.7c-1.2,0.2-1.6,1-1.6,2l1,2.4c0.6,0.7,1.5,1,2.7,0.8
			c1.4-0.3,2-1.2,1.3-3C179.1,285,177.9,284.4,176.5,284.7z"/>
		<path d="M180.7,280c-0.3-0.7,0.1-1.3,0.8-1.4c0.7-0.1,1.4,0.2,1.7,0.9c0.3,0.6-0.1,1.2-0.8,1.4C181.8,281,181,280.7,180.7,280z
			 M182,282.3l1.8-0.4l3.1,7.5l-1.8,0.4L182,282.3z"/>
		<path d="M195.1,285.7c0.2,1.4-0.5,2.2-2.1,2.5c-1.7,0.4-2.9-0.2-3.6-1.9l-1.6-3.8L186,283l-0.6-1.4l1.9-0.4l-0.9-2.1l1.7-0.4
			l0.9,2.1l3.2-0.7l0.6,1.4l-3.2,0.7l1.6,3.8c0.4,0.8,0.9,1,1.5,0.9s0.8-0.4,0.8-1.1L195.1,285.7z"/>
		<path d="M194.7,283.7c-1-2.4,0-4.3,2.3-4.8c2-0.4,3.4,0.1,4.4,1.6l-1.6,0.6c-0.5-0.7-1.3-1-2.2-0.8c-1.5,0.3-1.8,1.5-1.2,3
			c0.7,1.7,1.8,2.4,3.2,2.1c1.1-0.2,1.5-0.7,1.4-1.6l1.7-0.1c0.3,1.6-0.7,2.7-2.6,3.1C197.9,287.2,195.8,286.3,194.7,283.7z"/>
		<path d="M211.1,279.3l1.9,4.6l-1.8,0.4l-1.9-4.5c-0.4-1-1.3-1.6-2.5-1.3c-1.1,0.2-1.6,1-1.6,1.9l2,4.8l-1.8,0.4l-4.6-11l1.8-0.4
			l1.8,4.4c0.3-0.8,1-1.4,2.2-1.6C208.8,276.4,210.3,277.4,211.1,279.3z"/>
	</g>
	<g>
		<path d="M332.6,257c0.2,1.4-0.5,2.2-2.1,2.5c-1.7,0.4-2.9-0.2-3.6-1.9l-1.6-3.8l-1.8,0.4l-0.6-1.4l1.9-0.4l-0.9-2.1l1.7-0.4
			l0.9,2.1l3.2-0.7l0.6,1.4l-3.2,0.7l1.6,3.8c0.4,0.8,0.9,1,1.5,0.9s0.8-0.4,0.8-1.1H332.6z"/>
		<path d="M341.8,256.9c-0.3,0.2-0.6,0.3-1,0.4c-0.9,0.2-1.5,0-2-0.6c-0.3,0.8-1,1.3-2.2,1.5c-1.6,0.3-3-0.2-3.5-1.6
			c-0.7-1.6,0.4-2.7,2.8-3.2c0.4-0.1,0.9-0.2,1.4-0.2l-0.2-0.6c-0.4-1-1.1-1.3-2.3-1.1c-0.9,0.2-1.3,0.7-1.2,1.3l-1.7,0.1
			c-0.3-1.4,0.4-2.5,2.4-2.9c2.2-0.5,3.7,0.2,4.5,2.1l1.3,3c0.2,0.4,0.4,0.6,0.7,0.5c0.2,0,0.3-0.1,0.4-0.2L341.8,256.9z
			 M338.1,255.4l-0.4-0.9c-0.3,0-0.8,0.1-1.3,0.2c-1.3,0.3-1.9,0.8-1.6,1.5c0.3,0.6,0.9,0.8,1.7,0.6
			C337.5,256.7,338,256.1,338.1,255.4z"/>
		<path d="M338.8,245.7l1.8-0.4l4.6,11l-1.8,0.4L338.8,245.7z"/>
		<path d="M349.5,251.9l-0.9,1.4l0.8,2l-1.8,0.4l-4.6-11l1.8-0.4l2.9,7.1l2.2-4.3l2.1-0.4l-1.8,3.9l5.1,3.5l-2.1,0.5L349.5,251.9z"
			/>
	</g>
	<g>
		<path d="M484.9,218l0.2,8.1l-1.5,0.3l-3.9-4.8l0.3,5.6l-1.6,0.3l-5.8-6.9l2-0.4l3.1,4.1l0.7,1l-0.1-1.1l-0.3-4.7l1.5-0.3l3.3,4
			l0.8,1.1l-0.1-1.2l-0.4-4.6L484.9,218z"/>
		<path d="M487,221.6c-1-2.3,0-4.3,2.6-4.9c2.6-0.6,4.8,0.6,5.8,3c1,2.3,0,4.3-2.6,4.9C490.3,225.1,488,224,487,221.6z M493.6,220.2
			c-0.7-1.6-2-2.4-3.5-2.1c-1.5,0.3-2,1.5-1.3,3.1s2,2.4,3.5,2.1C493.8,222.9,494.3,221.7,493.6,220.2z"/>
		<path d="M500.9,214.4l0.4,1.7c-0.3,0-0.5,0-0.9,0.1c-1.2,0.2-1.7,1-1.5,2.1l1.8,4.3l-1.8,0.4l-3.1-7.5l1.6-0.3l0.6,1.1
			c0.1-0.8,0.7-1.6,1.9-1.9C500.3,214.5,500.6,214.4,500.9,214.4z"/>
		<path d="M507.2,217.9l-0.9,1.4l0.8,2l-1.8,0.4l-4.6-11l1.8-0.4l2.9,7.1l2.2-4.3l2.1-0.4l-1.8,3.9l5.1,3.5l-2.1,0.5L507.2,217.9z"
			/>
		<path d="M512.5,218l1.5-0.6c0.6,0.8,1.2,0.9,2.5,0.7c1.2-0.2,1.6-0.6,1.4-1.3c-0.3-0.6-0.8-0.7-2.8-0.6c-2,0.2-3.3-0.4-3.8-1.7
			c-0.6-1.4,0.4-2.5,2.4-3c1.9-0.4,3.3,0,4.3,1.4l-1.5,0.6c-0.5-0.7-1.2-0.9-2.3-0.7c-1,0.2-1.5,0.6-1.2,1.2
			c0.2,0.6,0.7,0.7,2.6,0.6c2.2-0.2,3.3,0.3,3.9,1.7c0.6,1.5-0.2,2.6-2.6,3.1C514.8,219.9,513.5,219.5,512.5,218z"/>
		<path d="M527.9,212l1.9,4.6L528,217l-1.9-4.5c-0.4-1-1.3-1.6-2.5-1.3c-1.1,0.2-1.6,1-1.6,1.9l2,4.8l-1.8,0.4l-4.6-11l1.8-0.4
			l1.8,4.4c0.3-0.8,1-1.4,2.2-1.6C525.7,209.1,527.1,210.1,527.9,212z"/>
		<path d="M530,212.4c-1-2.3,0-4.3,2.6-4.9c2.6-0.6,4.8,0.6,5.8,3c1,2.3,0,4.3-2.6,4.9C533.3,216,531,214.9,530,212.4z M536.7,211
			c-0.7-1.6-2-2.4-3.5-2.1c-1.5,0.3-2,1.5-1.3,3.1s2,2.4,3.5,2.1C536.8,213.8,537.3,212.6,536.7,211z"/>
		<path d="M548.4,208.4c1.1,2.7-0.1,4.4-2.2,4.8c-1.1,0.2-2.1,0.1-2.9-0.4l1.6,3.8l-1.8,0.4l-4.3-10.5l1.6-0.3l0.6,1.1
			c0.2-0.9,0.9-1.7,2.2-2C545.3,204.9,547.3,205.8,548.4,208.4z M543.3,206.8c-1.2,0.2-1.6,1-1.6,2l1,2.4c0.6,0.7,1.5,1,2.7,0.8
			c1.4-0.3,2-1.2,1.3-3C545.9,207.1,544.7,206.5,543.3,206.8z"/>
	</g>
	<g>
		<path d="M536.7-5.6l-103,21.9c-3.2,0.7-6.8-1.1-8-3.9L396.5-58c-1.2-2.8,5.9-20.6,9.2-21.3l97.5-7c3.2-0.7,6.8,1.1,8,3.9L543-25.6
			C544.3-22.7,540-6.3,536.7-5.6z"/>
		<path class="st1" d="M432.3,16.8c-3,0-5.9-1.7-7-4.3l-29.2-70.3c-0.9-2.3,2.5-11.4,5.1-16.5c1.8-3.3,3.2-5.1,4.3-5.4l97.6-7
			c3.4-0.7,7.2,1.1,8.4,4.2l31.8,56.8c1,2.4-1.3,12.6-4,17.6c-0.9,1.8-1.8,2.7-2.6,2.9l-103,21.9C433.3,16.7,432.8,16.8,432.3,16.8z
			 M504.7-86c-0.5,0-0.9,0-1.4,0.1l-97.6,7c-0.3,0.1-1.5,0.6-3.7,5c-3.1,5.9-5.8,14.2-5.1,15.8l29.2,70.3c1.1,2.7,4.5,4.3,7.6,3.7
			L536.7-6c0.3-0.1,1-0.5,2.1-2.5c2.6-5,4.8-14.9,4-16.9L511-82.2C509.9-84.5,507.3-86,504.7-86z"/>
	</g>
	<path class="st3" d="M540.2-20.8L442.5,0c-3.2,0.7-6.8-1.1-8-3.9l-29.6-71.3c-1.2-2.8,0.5-5.7,3.7-6.4l97.6-20.7
		c3.2-0.7,6.8,1.1,8,3.9l29.6,71.3C545.1-24.3,543.4-21.4,540.2-20.8z"/>
	<g>
		<path d="M386.8,28.5l-103,21.9c-3.2,0.7-6.8-1.1-8-3.9l-29.2-70.3c-1.2-2.8,5.9-20.6,9.2-21.3l97.5-7c3.2-0.7,6.8,1.1,8,3.9
			l32.6,56C395.2,10.7,390.1,27.9,386.8,28.5z"/>
		<path class="st1" d="M282.4,51c-3,0-5.9-1.7-7-4.3l-29.2-70.3c-0.9-2.3,2.5-11.4,5.1-16.5c1.8-3.3,3.2-5.1,4.3-5.4l97.6-7
			c3.4-0.7,7.2,1.1,8.4,4.2l32.6,56c1,2.5-1.9,13-4.5,18c-1.1,2-2,3.1-2.9,3.3l-103,21.9C283.4,50.9,282.9,51,282.4,51z M354.8-51.8
			c-0.5,0-0.9,0-1.4,0.1l-97.6,7c-0.3,0.1-1.5,0.6-3.7,5c-3.1,5.9-5.8,14.2-5.1,15.8l29.2,70.3c1.1,2.7,4.5,4.3,7.6,3.7l103-21.9
			c0.3-0.1,1.1-0.5,2.3-2.9c2.9-5.5,5.3-15.4,4.5-17.3L361-48C360-50.3,357.4-51.8,354.8-51.8z"/>
	</g>
	<path class="st4" d="M390.3,13.4l-97.6,20.7c-3.2,0.7-6.8-1.1-8-3.9L255-41c-1.2-2.8,0.5-5.7,3.7-6.4l97.6-20.7
		c3.2-0.7,6.8,1.1,8,3.9L394,7C395.2,9.9,393.5,12.7,390.3,13.4z"/>
	<g>
		<path d="M236.2,61l-103,21.9c-3.2,0.7-6.8-1.1-8-3.9L96,8.7c-1.2-2.8,5.9-20.6,9.2-21.3l97.5-7c3.2-0.7,6.8,1.1,8,3.9l32.6,56.8
			C244.5,43.9,239.4,60.3,236.2,61z"/>
		<path class="st1" d="M131.8,83.4c-3,0-5.9-1.7-7-4.3L95.6,8.8c-0.9-2.3,2.5-11.4,5.1-16.5c1.8-3.3,3.2-5.1,4.3-5.4l97.6-7
			c3.4-0.7,7.2,1.1,8.4,4.2l32.6,56.8c1,2.4-1.7,12-4.3,17c-1.1,2.2-2.2,3.3-3.1,3.5l-103,21.9C132.8,83.4,132.3,83.4,131.8,83.4z
			 M204.2-19.4c-0.5,0-0.9,0-1.4,0.1l-97.6,7c-0.3,0.1-1.5,0.6-3.7,5c-3.1,5.9-5.8,14.2-5.1,15.8l29.2,70.3c1.1,2.7,4.5,4.3,7.6,3.7
			l103-21.9c0.3-0.1,1.2-0.5,2.5-3.1c2.7-5.1,5.1-14.3,4.3-16.2l-32.6-56.8C209.4-17.8,206.8-19.4,204.2-19.4z"/>
	</g>
	<path class="st2" d="M239.6,45.9L142,66.6c-3.2,0.7-6.8-1.1-8-3.9L104.4-8.6c-1.2-2.8,0.5-5.7,3.7-6.4l97.6-20.7
		c3.2-0.7,6.8,1.1,8,3.9l29.6,71.3C244.5,42.3,242.9,45.2,239.6,45.9z"/>
	<g>
		<path d="M444.5,112.7l-1.7,0.4l-2.8-6.7l-0.3-1l-0.1,8.2l-1.7,0.4l-6.3-6.8l0.4,0.9l2.8,6.7l-1.7,0.4l-4.2-10l2.4-0.5l6.7,7.3
			v-8.8l2.3-0.5L444.5,112.7z"/>
		<path d="M444.6,107.2c-1.3-3.2,0.1-5.7,3.3-6.4c3.3-0.7,6.2,0.8,7.6,4c1.3,3.2,0,5.7-3.4,6.4C448.8,112,445.9,110.4,444.6,107.2z
			 M453.6,105.3c-1-2.5-3.1-3.5-5.2-3s-3,2.1-2,4.5c1,2.5,3,3.5,5.2,3C453.7,109.4,454.7,107.7,453.6,105.3z"/>
		<path d="M457,104.6c-1.3-3.2,0.1-5.7,3.3-6.4c3.3-0.7,6.2,0.8,7.6,4c1.3,3.2,0,5.7-3.4,6.4C461.2,109.3,458.3,107.8,457,104.6z
			 M466,102.7c-1-2.5-3.1-3.5-5.2-3s-3,2.1-2,4.5c1,2.5,3,3.5,5.2,3C466.1,106.7,467.1,105.1,466,102.7z"/>
		<path d="M469.4,102c-1.3-3.2,0-5.7,3.1-6.4c2.6-0.5,4.4,0.2,5.8,2.1l-1.5,0.7c-1-1.3-2.2-1.7-3.7-1.4c-2,0.4-2.9,2-1.9,4.5
			s2.9,3.5,4.9,3.1c1.7-0.4,2.4-1.1,2.3-2.6h1.7c0.2,2.1-0.9,3.5-3.5,4C473.4,106.7,470.7,105.2,469.4,102z"/>
	</g>
	<g>
		<path d="M221.7,152l1.9,4.7l-1.8,0.4l-1.9-4.5c-0.4-1-1.3-1.6-2.5-1.3c-1.1,0.2-1.6,1.1-1.5,1.9v0.1l1.9,4.7l-1.8,0.4l-1.9-4.5
			c-0.4-1-1.3-1.6-2.5-1.3c-1.1,0.2-1.6,1.1-1.5,1.9l2,4.8l-1.8,0.4l-3.1-7.5l1.6-0.3l0.5,0.9c0.2-0.8,0.9-1.4,2.2-1.7
			c1.4-0.3,2.5,0,3.3,0.9c0.2-0.9,0.9-1.7,2.4-2.1C219.4,149.2,220.9,150.1,221.7,152z"/>
		<path d="M233.3,154.5c-0.3,0.2-0.6,0.3-1,0.4c-0.9,0.2-1.5,0-2-0.6c-0.3,0.8-1,1.3-2.2,1.5c-1.6,0.3-3-0.2-3.5-1.6
			c-0.7-1.6,0.4-2.7,2.8-3.2c0.4-0.1,0.9-0.2,1.4-0.2l-0.2-0.6c-0.4-1-1.1-1.3-2.3-1.1c-0.9,0.2-1.3,0.7-1.2,1.3l-1.7,0.1
			c-0.3-1.4,0.4-2.5,2.4-2.9c2.2-0.5,3.7,0.2,4.5,2.1l1.3,3c0.2,0.4,0.4,0.6,0.7,0.5c0.2,0,0.3-0.1,0.4-0.2L233.3,154.5z M229.6,153
			l-0.4-0.9c-0.3,0-0.8,0.1-1.3,0.2c-1.3,0.3-1.9,0.8-1.6,1.5c0.3,0.6,0.9,0.8,1.7,0.6C229,154.3,229.5,153.8,229.6,153z"/>
		<path d="M233.2,152.4l1.5-0.6c0.6,0.8,1.2,0.9,2.5,0.7c1.2-0.2,1.6-0.6,1.4-1.3c-0.3-0.6-0.8-0.8-2.8-0.6s-3.2-0.4-3.8-1.7
			c-0.6-1.4,0.4-2.5,2.4-3c1.9-0.4,3.3,0,4.3,1.4l-1.5,0.6c-0.5-0.7-1.2-0.9-2.3-0.7c-1,0.2-1.5,0.6-1.2,1.2
			c0.2,0.6,0.7,0.7,2.6,0.6c2.2-0.2,3.3,0.3,3.9,1.7c0.6,1.5-0.2,2.6-2.6,3.1C235.5,154.3,234.2,153.9,233.2,152.4z"/>
		<path d="M248.4,149.5c0.2,1.4-0.5,2.2-2.1,2.5c-1.7,0.4-2.9-0.2-3.6-1.9l-1.6-3.8l-1.8,0.4l-0.6-1.4l1.9-0.4l-0.9-2.1l1.7-0.4
			l0.9,2.1l3.2-0.7l0.6,1.4l-3.2,0.7l1.6,3.8c0.4,0.8,0.9,1,1.5,0.9s0.8-0.4,0.8-1.1H248.4z"/>
		<path d="M256,146.2l-5.9,1.3c0.8,1.5,2,1.9,3.1,1.7c1-0.2,1.5-0.7,1.5-1.5l1.7-0.1c0.2,1.6-1,2.6-2.7,3c-2.4,0.5-4.6-0.5-5.6-3
			c-1-2.4,0-4.4,2.4-4.9c2.2-0.5,4.2,0.5,5.2,2.7C255.9,145.6,255.9,145.9,256,146.2z M249.6,146.1l4.2-0.9
			c-0.6-1.1-1.5-1.6-2.7-1.3C250,144.2,249.4,144.9,249.6,146.1z"/>
		<path d="M261.4,140.4l0.4,1.7c-0.3,0-0.5,0-0.9,0.1c-1.2,0.2-1.7,1-1.5,2.1l1.8,4.3l-1.8,0.4l-3.1-7.5l1.6-0.3l0.6,1.1
			c0.1-0.8,0.7-1.6,1.9-1.9C260.8,140.4,261,140.4,261.4,140.4z"/>
		<path d="M263.4,144.2c-1-2.4,0-4.3,2.3-4.8c2-0.4,3.4,0.1,4.4,1.6l-1.6,0.6c-0.5-0.7-1.3-1-2.2-0.8c-1.5,0.3-1.8,1.5-1.2,3
			c0.7,1.7,1.8,2.4,3.2,2.1c1.1-0.2,1.5-0.7,1.4-1.6l1.7-0.1c0.3,1.6-0.7,2.7-2.6,3.1C266.6,147.7,264.5,146.8,263.4,144.2z"/>
		<path d="M269.6,134.9l1.8-0.4l4.6,11l-1.8,0.4L269.6,134.9z"/>
		<path d="M285.8,143.4c-0.3,0.2-0.6,0.3-1,0.4c-0.9,0.2-1.5,0-2-0.6c-0.3,0.8-1,1.3-2.2,1.5c-1.6,0.3-3-0.2-3.5-1.6
			c-0.7-1.6,0.4-2.7,2.8-3.2c0.4-0.1,0.9-0.2,1.4-0.2l-0.2-0.6c-0.4-1-1.1-1.3-2.3-1.1c-0.9,0.2-1.3,0.7-1.2,1.3l-1.7,0.1
			c-0.3-1.4,0.4-2.5,2.4-2.9c2.2-0.5,3.7,0.2,4.5,2.1l1.3,3c0.2,0.4,0.4,0.6,0.7,0.5c0.2,0,0.3-0.1,0.4-0.2L285.8,143.4z
			 M282.1,141.9l-0.4-0.9c-0.3,0-0.8,0.1-1.3,0.2c-1.3,0.3-1.9,0.8-1.6,1.5c0.3,0.6,0.9,0.8,1.7,0.6
			C281.4,143.2,282,142.6,282.1,141.9z"/>
		<path d="M285.7,141.3l1.5-0.6c0.6,0.8,1.2,0.9,2.5,0.7c1.2-0.2,1.6-0.6,1.4-1.3c-0.3-0.6-0.8-0.8-2.8-0.6s-3.2-0.4-3.8-1.7
			c-0.6-1.4,0.4-2.5,2.4-3c1.9-0.4,3.3,0,4.3,1.4l-1.5,0.6c-0.5-0.7-1.2-0.9-2.3-0.7c-1,0.2-1.5,0.6-1.2,1.2
			c0.2,0.6,0.7,0.7,2.6,0.6c2.2-0.2,3.3,0.3,3.9,1.7c0.6,1.5-0.2,2.6-2.6,3.1C288,143.2,286.6,142.8,285.7,141.3z"/>
		<path d="M293.9,139.6l1.5-0.6c0.6,0.8,1.2,0.9,2.5,0.7c1.2-0.2,1.6-0.6,1.4-1.3c-0.3-0.6-0.8-0.8-2.8-0.6s-3.3-0.4-3.8-1.7
			c-0.6-1.4,0.4-2.5,2.4-3c1.9-0.4,3.3,0,4.3,1.4l-1.5,0.6c-0.5-0.7-1.2-0.9-2.3-0.7c-1,0.2-1.5,0.6-1.2,1.2
			c0.2,0.6,0.7,0.7,2.6,0.6c2.2-0.2,3.3,0.3,3.9,1.7c0.6,1.5-0.2,2.6-2.6,3.1C296.2,141.4,294.8,141,293.9,139.6z"/>
	</g>
	<g>
		<g>
			<path class="st1" d="M450.8,355.8c0,0-15.2,15.3,21.7,37.6c0,0,19.5,11.3,37.9,9.1c0,0,73.8,24.6,93.6,19.6
				c0,0,68.2,34.2,100.8,30l25.6-82c0,0-96.6-17.5-130.2-10.8c-33.6,6.7-70.4-4.6-70.4-4.6s-16.7,0.7-28.6-2.3
				C501.2,352.3,492.5,377,450.8,355.8z"/>
			<path class="st6" d="M698.7,453.6c-13.6,0-32.7-4.6-57-13.9c-19.2-7.3-35.2-15.1-37.9-16.4c-8.6,1.9-26.9-0.8-54.4-8.1
				c-19.4-5.1-36.9-10.8-39.2-11.6c-18.5,2.2-37.5-8.8-38.3-9.3c-15.7-9.5-24.2-18.9-25.3-28.1c-0.9-7.1,3.2-11.3,3.3-11.4l0.6-0.6
				l0.8,0.4c15.9,8.1,29.2,10.4,38.5,6.8c7.8-3.1,10.2-9.5,10.2-9.5l0.4-1l1.1,0.3c11.5,2.8,28.1,2.2,28.3,2.2h0.2l0.2,0.1
				c0.4,0.1,37,11.2,69.8,4.6c33.4-6.7,126.7,10.1,130.7,10.8l1.4,0.2l-26.3,84.1l-0.8,0.1C703,453.5,700.9,453.6,698.7,453.6z
				 M604.1,420.7l0.4,0.2c0.7,0.3,67.2,33.4,99.3,30l25-79.9c-5.5-1-26.9-4.7-51.1-7.7c-37-4.6-63.7-5.6-77.3-2.9
				c-32.2,6.5-67.8-3.7-70.8-4.6c-2,0.1-16.5,0.5-27.7-2.1c-1.1,2.2-4.1,7.2-11.1,9.9c-9.9,4-23.2,1.8-39.7-6.4
				c-0.9,1.3-2.7,4.3-2.1,8.8c0.7,5.7,5.5,15,24.1,26.2c0.2,0.1,19.3,11.1,37.1,8.9h0.3l0.3,0.1c0.7,0.2,73.7,24.4,92.9,19.6
				L604.1,420.7z"/>
		</g>
		<g>
			<path class="st1" d="M450.8,355.8c0,0-0.4-4.1,11.6-7.1c20.9-5.3,38.8,3.7,38.8,3.7S492.9,377.7,450.8,355.8z"/>
			<path class="st6" d="M480.3,365.9c-8.4,0-18.5-3-30.1-9.1l-0.6-0.3l-0.1-0.7c-0.1-0.9,0.1-5.3,12.5-8.5
				c21.1-5.4,38.9,3.4,39.6,3.8l0.9,0.5l-0.3,1c-0.1,0.3-2.6,7.7-11.4,11.3C487.8,365.3,484.2,365.9,480.3,365.9z M452.2,355.1
				c15.7,8,28.7,10.3,37.7,6.6c5.9-2.4,8.7-6.8,9.6-8.8c-4.1-1.8-19.6-7.6-36.9-3.1C454.9,351.8,452.8,354.1,452.2,355.1z"/>
		</g>
	</g>
	<path class="st0" d="M208.8,355.5c-0.9,0-1.7-0.5-1.9-1.4l-4.6-13.8c-0.4-1.1,0.2-2.2,1.3-2.6s2.2,0.2,2.6,1.3l4.6,13.8
		c0.4,1.1-0.2,2.2-1.3,2.6C209.2,355.5,209,355.5,208.8,355.5z"/>
	<path class="st4" d="M196.3,357.5c-0.3,0-0.6-0.1-0.8-0.2l-8.5-3.9c-1-0.5-1.5-1.7-1-2.7s1.7-1.5,2.7-1l8.5,3.9
		c1,0.5,1.5,1.7,1,2.7C197.8,357.1,197.1,357.5,196.3,357.5z"/>
	<path class="st2" d="M187,372.7c-0.9,0-1.7-0.6-2-1.5c-0.3-1.1,0.4-2.2,1.5-2.5l14.1-3.6c1.1-0.3,2.2,0.4,2.5,1.5s-0.4,2.2-1.5,2.5
		l-14.1,3.6C187.4,372.7,187.2,372.7,187,372.7z"/>
	<g>
		<path class="st1" d="M532.3,373.2c0,0-1.5-2.7,2.4-4.4c3.9-1.8,5-4.4,5-5.3"/>
		<path class="st6" d="M531.2,373.8c-0.1-0.1-0.8-1.4-0.2-3c0.4-1.3,1.5-2.3,3.2-3.1c3.5-1.6,4.3-3.9,4.3-4.2h2.4
			c0,1.5-1.6,4.5-5.7,6.4c-1,0.5-1.7,1-1.9,1.7c-0.2,0.6,0.1,1.1,0.1,1.1L531.2,373.8z"/>
	</g>
	<g>
		<path class="st1" d="M537.8,373.2c0,0-1.5-2.7,2.4-4.4c3.9-1.8,5-4.4,5-5.3"/>
		<path class="st6" d="M536.8,373.8c-0.1-0.1-0.8-1.4-0.2-3c0.4-1.3,1.5-2.3,3.2-3.1c3.5-1.6,4.3-3.9,4.3-4.2h2.4
			c0,1.5-1.6,4.5-5.7,6.4c-1,0.5-1.6,1-1.9,1.6c-0.2,0.6,0,1.1,0.1,1.1L536.8,373.8z"/>
	</g>
</g>
</svg>
