<?xml version="1.0" encoding="utf-8"?>
<!-- Generator: Adobe Illustrator 25.2.1, SVG Export Plug-In . SVG Version: 6.00 Build 0)  -->
<svg version="1.1" id="Calque_1" xmlns="http://www.w3.org/2000/svg" xmlns:xlink="http://www.w3.org/1999/xlink" x="0px" y="0px"
	 width="596px" height="459.9px" viewBox="0 0 596 459.9" style="enable-background:new 0 0 596 459.9;" xml:space="preserve">
<style type="text/css">
	.st0{fill:#F095B5;}
	.st1{fill:#FFFFFF;}
	.st2{fill:#1D1D1B;}
	.st3{fill:#7FC295;}
	.st4{fill:#0098D8;}
	.st5{fill:#E4C300;}
	.st6{fill:#F2A5C8;}
	.st7{fill:#0076BB;}
</style>
<g>
	<path class="st0" d="M470.8,391.1l-280.9,59.7c-3.2,0.7-6.8-1.1-8-3.9l-29.2-70.3c-1.2-2.8,5.1-16.5,8.4-17.2l276.3-48.9
		c3.2-0.7,4.4,1.1,5.6,3.9l28.1,65.2C472.1,382.4,474,390.4,470.8,391.1z"/>
	<g>
		<path class="st1" d="M466.9,384.2l-275.6,58.5c-3.2,0.7-6.8-1.1-8-3.9l-29.6-71.3c-1.2-2.8,0.5-5.7,3.7-6.4L433,302.6
			c3.2-0.7,6.8,1.1,8,3.9l29.6,71.3C471.8,380.6,470.1,383.5,466.9,384.2z"/>
		<path d="M189.9,444.1c-3.3,0-6.5-1.9-7.7-4.8L152.5,368c-0.7-1.6-0.6-3.4,0.2-4.9c0.8-1.6,2.5-2.8,4.4-3.2l275.6-58.5
			c3.8-0.8,8,1.3,9.4,4.6l29.6,71.3c0.7,1.6,0.6,3.4-0.2,4.9c-0.8,1.6-2.5,2.8-4.4,3.2v0l-275.6,58.5
			C191,444,190.4,444.1,189.9,444.1z M434.4,303.6c-0.4,0-0.8,0-1.2,0.1l-275.6,58.5c-1.3,0.3-2.3,1-2.8,1.9
			c-0.4,0.8-0.5,1.8-0.1,2.8l29.6,71.3c1,2.3,4,3.7,6.6,3.2L466.6,383c1.3-0.3,2.3-1,2.8-1.9c0.4-0.8,0.5-1.8,0.1-2.8L439.9,307
			C439,305,436.7,303.6,434.4,303.6z"/>
	</g>
	<g>
		<path class="st1" d="M1018.2,272L521.6,377.5c-3.2,0.7-6.8-1.1-8-3.9l-29.2-70.3c-1.2-2.8,5.9-20.6,9.2-21.3l491.2-90.6
			c3.2-0.7,6.8,1.1,8,3.9l32.6,55.2C1026.5,253.4,1021.4,271.3,1018.2,272z"/>
		<path class="st2" d="M520.1,378.1c-3,0-5.9-1.7-7-4.3l-29.2-70.3c-0.9-2.3,2.5-11.4,5.1-16.5c1.8-3.3,3.2-5.1,4.3-5.4L984.6,191
			c3.4-0.7,7.2,1.1,8.5,4.2l32.6,55.1c1.1,2.5-2,14-4.7,19.1c-1,1.9-1.9,2.9-2.7,3.1l-0.1-0.4l0.1,0.4L521.6,377.9
			C521.1,378,520.6,378.1,520.1,378.1z M986.1,191.7c-0.5,0-0.9,0-1.4,0.1l-491.2,90.6c-0.3,0.1-1.5,0.6-3.8,5
			c-3.1,5.9-5.8,14.2-5.1,15.8l29.2,70.3c1.1,2.7,4.5,4.3,7.6,3.7l496.6-105.5c0.3-0.1,1-0.4,2.2-2.7c2.9-5.5,5.5-16.4,4.7-18.3
			l-32.6-55.1C991.4,193.2,988.8,191.7,986.1,191.7z"/>
	</g>
	<path class="st3" d="M1021.6,256.9L530.3,361.3c-3.2,0.7-6.8-1.1-8-3.9l-29.6-71.3c-1.2-2.8,0.5-5.7,3.7-6.4l491.3-104.4
		c3.2-0.7,6.8,1.1,8,3.9l29.6,71.3C1026.5,253.4,1024.8,256.2,1021.6,256.9z"/>
	<g>
		<path class="st1" d="M507.4,242l-103,21.9c-3.2,0.7-6.8-1.1-8-3.9l-29.2-70.3c-1.2-2.8,5.9-20.6,9.2-21.3l97.5-7
			c3.2-0.7,6.8,1.1,8,3.9l31.8,56.8C514.9,225,510.7,241.3,507.4,242z"/>
		<path class="st2" d="M403,264.5c-3,0-5.9-1.7-7-4.3l-29.2-70.3c-0.9-2.3,2.5-11.4,5.1-16.5c1.8-3.3,3.2-5.1,4.3-5.4l97.6-7
			c3.4-0.7,7.2,1.1,8.4,4.2l31.8,56.8c1,2.4-1.3,12.6-4,17.6c-0.9,1.8-1.8,2.7-2.6,2.9l-103,21.9C404,264.4,403.5,264.5,403,264.5z
			 M475.4,161.7c-0.5,0-0.9,0-1.4,0.1l-97.6,7c-0.3,0.1-1.5,0.6-3.7,5c-3.1,5.9-5.8,14.2-5.1,15.8l29.2,70.3
			c1.1,2.7,4.5,4.3,7.6,3.7l103-21.9c0.3-0.1,1-0.5,2.1-2.5c2.6-5,4.8-14.9,4-16.9l-31.8-56.8C480.6,163.2,478,161.7,475.4,161.7z"
			/>
	</g>
	<path class="st4" d="M510.8,226.9l-97.6,20.7c-3.2,0.7-6.8-1.1-8-3.9l-29.6-71.3c-1.2-2.8,0.5-5.7,3.7-6.4l97.6-20.7
		c3.2-0.7,6.8,1.1,8,3.9l29.6,71.3C515.8,223.3,514.1,226.2,510.8,226.9z"/>
	<g>
		<path class="st1" d="M357.5,276.2l-103,21.9c-3.2,0.7-6.8-1.1-8-3.9l-29.2-70.3c-1.2-2.8,5.9-20.6,9.2-21.3l97.5-7
			c3.2-0.7,6.8,1.1,8,3.9l32.6,56C365.9,258.3,360.7,275.5,357.5,276.2z"/>
		<path class="st2" d="M253.1,298.6c-3,0-5.9-1.7-7-4.3L216.9,224c-0.9-2.3,2.5-11.4,5.1-16.5c1.8-3.3,3.2-5.1,4.3-5.4l97.6-7
			c3.4-0.7,7.2,1.1,8.4,4.2l32.6,56c1,2.5-1.9,13-4.5,18c-1.1,2-2,3.1-2.9,3.3l-103,21.9C254.1,298.6,253.6,298.6,253.1,298.6z
			 M325.5,195.8c-0.5,0-0.9,0-1.4,0.1l-97.6,7c-0.3,0.1-1.5,0.6-3.7,5c-3.1,5.9-5.8,14.2-5.1,15.8l29.2,70.3
			c1.1,2.7,4.5,4.3,7.6,3.7l103-21.9c0.3-0.1,1.1-0.5,2.3-2.9c2.9-5.5,5.3-15.4,4.5-17.3l-32.6-56
			C330.7,197.4,328.1,195.8,325.5,195.8z"/>
	</g>
	<path class="st5" d="M360.9,261.1l-97.6,20.7c-3.2,0.7-6.8-1.1-8-3.9l-29.6-71.3c-1.2-2.8,0.5-5.7,3.7-6.4l97.6-20.7
		c3.2-0.7,6.8,1.1,8,3.9l29.6,71.3C365.9,257.5,364.2,260.4,360.9,261.1z"/>
	<g>
		<path class="st1" d="M206.9,308.7l-103,21.9c-3.2,0.7-6.8-1.1-8-3.9l-29.2-70.3c-1.2-2.8,5.9-20.6,9.2-21.3l97.5-7
			c3.2-0.7,6.8,1.1,8,3.9l32.6,56.8C215.2,291.6,210.1,308,206.9,308.7z"/>
		<path class="st2" d="M102.5,331.1c-3,0-5.9-1.7-7-4.3l-29.2-70.3c-0.9-2.3,2.5-11.4,5.1-16.5c1.8-3.3,3.2-5.1,4.3-5.4l97.6-7
			c3.4-0.7,7.2,1.1,8.4,4.2l32.6,56.8c1,2.4-1.7,12-4.3,17c-1.1,2.2-2.2,3.3-3.1,3.5L104,331C103.5,331.1,103,331.1,102.5,331.1z
			 M174.8,228.3c-0.5,0-0.9,0-1.4,0.1l-97.6,7c-0.3,0.1-1.5,0.6-3.7,5c-3.1,5.9-5.8,14.2-5.1,15.8l29.2,70.3
			c1.1,2.7,4.5,4.3,7.6,3.7l103-21.9c0.3-0.1,1.2-0.5,2.5-3.1c2.7-5.1,5.1-14.3,4.3-16.2l-32.6-56.8
			C180.1,229.8,177.5,228.3,174.8,228.3z"/>
	</g>
	<path class="st3" d="M210.3,293.6l-97.6,20.7c-3.2,0.7-6.8-1.1-8-3.9L75,239.1c-1.2-2.8,0.5-5.7,3.7-6.4l97.6-20.7
		c3.2-0.7,6.8,1.1,8,3.9l29.6,71.3C215.2,290,213.5,292.9,210.3,293.6z"/>
	<g>
		<path class="st1" d="M310.8,161.1l-173.1,36.8c-3.2,0.7-6.8-1.1-8-3.9l-29.2-70.3c-1.2-2.8,5.9-20.6,9.2-21.3l167.6-21.9
			c3.2-0.7,6.8,1.1,8,3.9l31.8,55.2C318.3,142.4,314,160.4,310.8,161.1z"/>
		<path class="st2" d="M136.3,198.4c-3,0-5.9-1.7-7-4.3l-29.2-70.3c-0.9-2.3,2.5-11.4,5.1-16.5c1.8-3.3,3.2-5.1,4.3-5.4L277.2,80
			c3.4-0.7,7.2,1.1,8.5,4.2l31.8,55.1c1,2.5-1.6,14.5-4.3,19.6c-0.8,1.6-1.6,2.4-2.4,2.6l-173.1,36.8
			C137.3,198.3,136.8,198.4,136.3,198.4z M278.7,80.7c-0.5,0-0.9,0-1.4,0.1l-167.7,21.9c-0.3,0.1-1.5,0.6-3.8,5
			c-3.1,5.9-5.8,14.2-5.1,15.8l29.2,70.3c1.1,2.7,4.5,4.3,7.6,3.7l173.1-36.8c0.3-0.1,0.9-0.4,1.8-2.1c2.7-5.2,5.1-16.8,4.2-18.8
			L285,84.5C284,82.2,281.4,80.7,278.7,80.7z"/>
	</g>
	<path class="st0" d="M314.2,145.9l-167.7,35.6c-3.2,0.7-6.8-1.1-8-3.9l-29.6-71.3c-1.2-2.8,0.5-5.7,3.7-6.4l167.7-35.6
		c3.2-0.7,6.8,1.1,8,3.9l29.6,71.3C319.1,142.4,317.4,145.3,314.2,145.9z"/>
	<g>
		<g>
			<path class="st1" d="M662.9,208.6l-103,21.9c-3.2,0.7-6.8-1.1-8-3.9l-29.2-70.3c-1.2-2.8,5.1-19.8,8.4-20.5l98.4-7.8
				c3.2-0.7,6.8,1.1,8,3.9l32.6,55.2C671.2,190,666.1,208,662.9,208.6z"/>
			<path class="st2" d="M558.5,231.1c-3,0-5.9-1.7-7-4.3l-29.2-70.3c-0.9-2.2,1.9-11,4.8-16.4c1.5-2.8,2.8-4.4,3.9-4.6l98.4-7.8
				c3.4-0.7,7.2,1.1,8.4,4.2l32.6,55.1c1.1,2.5-2,14-4.7,19.1c-1,1.9-1.9,2.9-2.7,3.1l-103,21.9C559.5,231,559,231.1,558.5,231.1z
				 M630.8,128.3c-0.5,0-0.9,0-1.4,0.1l-98.4,7.8c-0.3,0.1-1.4,0.6-3.2,4.2c-3,5.6-5.5,14-4.8,15.7l29.2,70.3
				c1.1,2.7,4.5,4.3,7.6,3.7l103-21.9c0.3-0.1,1-0.4,2.2-2.7c2.9-5.5,5.5-16.4,4.7-18.3l-32.6-55.1
				C636.1,129.8,633.5,128.3,630.8,128.3z"/>
		</g>
		<path class="st6" d="M666.3,193.5l-97.6,20.7c-3.2,0.7-6.8-1.1-8-3.9L531,139.1c-1.2-2.8,0.5-5.7,3.7-6.4l97.6-20.7
			c3.2-0.7,6.8,1.1,8,3.9l29.6,71.3C671.2,190,669.5,192.8,666.3,193.5z"/>
	</g>
	<g>
		<g>
			<path class="st1" d="M625.4,97.5l-103,21.9c-3.2,0.7-6.8-1.1-8-3.9l-29.2-70.3c-1.2-2.8,5.1-16.5,8.4-17.2l98.4-11.1
				c3.2-0.7,6.8,1.1,8,3.9L632.5,76C633.7,78.8,628.6,96.8,625.4,97.5z"/>
			<path class="st2" d="M520.9,120c-3,0-5.9-1.7-7-4.3l-29.2-70.3c-0.8-1.8,1.1-7.1,3.3-11.3c0.9-1.8,3.3-6,5.3-6.4l98.4-11.1
				c3.4-0.7,7.2,1.1,8.5,4.2l32.6,55.1c1.1,2.5-2,14-4.7,19.1c-1,1.9-1.9,2.9-2.7,3.1l-0.1-0.4l0.1,0.4l-103,21.9
				C522,119.9,521.4,120,520.9,120z M593.3,17.2c-0.5,0-0.9,0-1.4,0.1l-98.4,11.1c-1.1,0.2-2.9,2.5-4.7,6c-2.4,4.5-3.9,9.3-3.3,10.7
				l29.2,70.3c1.1,2.7,4.5,4.3,7.6,3.7l103-21.9c0.3-0.1,1-0.4,2.2-2.7c2.9-5.5,5.5-16.4,4.7-18.3L599.5,21
				C598.6,18.7,595.9,17.2,593.3,17.2z"/>
		</g>
		<path class="st5" d="M628.8,82.4l-97.6,20.7c-3.2,0.7-6.8-1.1-8-3.9L493.5,28c-1.2-2.8,0.5-5.7,3.7-6.4l97.6-20.7
			c3.2-0.7,6.8,1.1,8,3.9L632.5,76C633.7,78.8,632,81.7,628.8,82.4z"/>
	</g>
	<g>
		<path class="st1" d="M463.7,129l-103,21.9c-3.2,0.7-6.8-1.1-8-3.9l-29.2-70.3c-1.2-2.8,5.1-16.5,8.4-17.2l98.4-11.1
			c3.2-0.7,6.8,1.1,8,3.9l32.6,56.8C472.1,111.9,467,128.3,463.7,129z"/>
		<path class="st2" d="M359.3,151.4c-3,0-5.9-1.7-7-4.3l-29.2-70.3c-0.8-1.8,1.1-7.1,3.3-11.3c0.9-1.8,3.3-6,5.3-6.4l98.4-11.1
			c3.4-0.7,7.2,1.1,8.5,4.2l32.6,56.8c1,2.4-1.7,12-4.3,17c-1.1,2.2-2.2,3.3-3.1,3.5l-103,21.9C360.3,151.4,359.8,151.4,359.3,151.4
			z M431.7,48.6c-0.5,0-0.9,0-1.4,0.1l-98.4,11.1c-1.1,0.2-2.9,2.5-4.7,6c-2.4,4.5-3.9,9.3-3.3,10.7l29.2,70.3
			c1.1,2.7,4.5,4.3,7.6,3.7l103-21.9c0.3-0.1,1.2-0.5,2.5-3.1c2.7-5.1,5.1-14.3,4.3-16.2l-32.6-56.8
			C436.9,50.1,434.3,48.6,431.7,48.6z"/>
	</g>
	<path class="st3" d="M467.2,113.9l-97.6,20.7c-3.2,0.7-6.8-1.1-8-3.9l-29.6-71.3c-1.2-2.8,0.5-5.7,3.7-6.4l97.6-20.7
		c3.2-0.7,6.8,1.1,8,3.9l29.6,71.3C472.1,110.3,470.4,113.2,467.2,113.9z"/>
	<g>
		<g>
			<path d="M226.6,412.5c-0.7,0.6-2.1,1.2-3.8,1.6c-3.4,0.7-6.1-0.3-9-2.8l-3.7-3.1l-0.6,0.1c-1,0.2-2,0.4-3,0.5l3.1,7.5l-8.5,1.8
				L190.3,392l13.1-2.8c7.5-1.6,13.1,0.8,15.4,6.5c1.5,3.7,1.1,6.7-1.2,8.9l2.1,1.5c1.2,0.8,2,0.9,2.8,0.7c0.4-0.1,0.9-0.3,1.1-0.4
				L226.6,412.5z M203.9,402.7c0.9-0.1,1.9-0.3,2.8-0.5c3.3-0.7,4.7-2,3.9-4.1c-0.7-1.9-2.7-2.6-5.4-2l-3.7,0.8L203.9,402.7z"/>
			<path d="M250.1,405.2c-1.7,2.2-4.2,4-9.6,5.1c-6.9,1.5-12.9-0.7-15.6-7.3c-2.7-6.4,0-11.9,8-13.7c6.1-1.3,10.2,0.7,11.7,4.2
				c1.9,4.3-1.2,7.6-9.7,9.7c1.3,1,2.6,1,4.5,0.6c2-0.4,3.9-1.3,5.3-2.9L250.1,405.2z M232.5,399.2c3.1-0.8,5.2-1.6,4.6-3.1
				c-0.3-0.8-1.3-1.1-2.5-0.8C232.8,395.6,231.9,397,232.5,399.2z"/>
			<path d="M273.8,391.9c2.8,6.8,0.1,11.4-5.3,12.6c-2.9,0.6-5.5,0.2-7.7-1.3l0.7,2.1l-7.5,1.6l-11.9-28.6l8.4-1.8l4.5,10.8
				c0.8-1.8,2.6-3,5-3.5C265.6,382.6,271.1,385.4,273.8,391.9z M260,390.6c-1.6,0.3-2.4,1.3-2.5,2.7l1.6,3.9c1,1.4,2.6,1.8,4.3,1.4
				c2.2-0.5,3-2.1,2-4.8C264.4,391.2,262.2,390.2,260,390.6z"/>
			<path d="M276.1,391.7c-2.6-6.2,0.5-11.5,8-13.1c7.5-1.6,13.6,1.3,16.3,7.7c2.6,6.2-0.5,11.5-8,13.1
				C285,401,278.8,398.2,276.1,391.7z M292.1,388.2c-1-2.5-3.1-3.7-5.4-3.2c-2.5,0.5-3.2,2.3-2.2,4.8c1.1,2.6,3,3.7,5.5,3.2
				C292.4,392.5,293.2,390.8,292.1,388.2z"/>
			<path d="M302.5,386.1c-2.6-6.2,0.5-11.5,8-13.1c7.5-1.6,13.6,1.2,16.3,7.7c2.6,6.2-0.5,11.5-8,13.1
				C311.3,395.4,305.2,392.6,302.5,386.1z M318.5,382.6c-1-2.5-3.1-3.7-5.4-3.2c-2.5,0.5-3.2,2.3-2.2,4.8c1.1,2.6,3,3.7,5.5,3.2
				C318.8,386.9,319.6,385.2,318.5,382.6z"/>
			<path d="M351.4,384.2c-1.1,2-3.4,3.4-6.4,4.1c-5.3,1.1-9.7-0.1-11.9-5.4l-2.8-6.8l-3.6,0.8l-2.4-5.8c3.3-1,4.2-2,2.8-6.3l7-1.5
				l2.1,5.1l6.4-1.4l2.4,5.9l-6.4,1.4l2.2,5.3c0.6,1.5,1.8,1.8,3.2,1.4c1-0.2,1.5-0.6,2-1.3L351.4,384.2z"/>
			<path d="M354.5,381.2c-1.1-2.6,0.4-5,3.3-5.6c2.9-0.6,5.8,0.8,6.8,3.4s-0.3,5-3.1,5.6C358.7,385.3,355.6,383.9,354.5,381.2z
				 M349.2,366.1l-4-9.7l8.3-1.8l4,9.7l2.9,8.8l-7,1.5L349.2,366.1z"/>
		</g>
	</g>
	<g>
		<path d="M121.6,286.3c1.1,2.7-0.1,4.4-2.2,4.8c-1.1,0.2-2.1,0.1-2.9-0.4l1.6,3.8l-1.8,0.4l-4.3-10.5l1.6-0.3l0.6,1.1
			c0.2-0.9,0.9-1.7,2.2-2C118.5,282.8,120.5,283.7,121.6,286.3z M116.5,284.7c-1.2,0.2-1.6,1-1.6,2l1,2.4c0.6,0.7,1.5,1,2.7,0.8
			c1.4-0.3,2-1.2,1.3-3C119.1,285,117.9,284.4,116.5,284.7z"/>
		<path d="M120.7,280c-0.3-0.7,0.1-1.3,0.8-1.4c0.7-0.1,1.4,0.2,1.7,0.9c0.3,0.6-0.1,1.2-0.8,1.4C121.8,281,121,280.7,120.7,280z
			 M122,282.3l1.8-0.4l3.1,7.5l-1.8,0.4L122,282.3z"/>
		<path d="M135.1,285.7c0.2,1.4-0.5,2.2-2.1,2.5c-1.7,0.4-2.9-0.2-3.6-1.9l-1.6-3.8L126,283l-0.6-1.4l1.9-0.4l-0.9-2.1l1.7-0.4
			l0.9,2.1l3.2-0.7l0.6,1.4l-3.2,0.7l1.6,3.8c0.4,0.8,0.9,1,1.5,0.9c0.6-0.1,0.8-0.4,0.8-1.1L135.1,285.7z"/>
		<path d="M134.7,283.7c-1-2.4,0-4.3,2.3-4.8c2-0.4,3.4,0.1,4.4,1.6l-1.6,0.6c-0.5-0.7-1.3-1-2.2-0.8c-1.5,0.3-1.8,1.5-1.2,3
			c0.7,1.7,1.8,2.4,3.2,2.1c1.1-0.2,1.5-0.7,1.4-1.6l1.7-0.1c0.3,1.6-0.7,2.7-2.6,3.1C137.9,287.2,135.8,286.3,134.7,283.7z"/>
		<path d="M151.1,279.3l1.9,4.6l-1.8,0.4l-1.9-4.5c-0.4-1-1.3-1.6-2.5-1.3c-1.1,0.2-1.6,1-1.6,1.9l2,4.8l-1.8,0.4l-4.6-11l1.8-0.4
			l1.8,4.4c0.3-0.8,1-1.4,2.2-1.6C148.8,276.4,150.3,277.4,151.1,279.3z"/>
	</g>
	<g>
		<path d="M272.6,257c0.2,1.4-0.5,2.2-2.1,2.5c-1.7,0.4-2.9-0.2-3.6-1.9l-1.6-3.8l-1.8,0.4l-0.6-1.4l1.9-0.4l-0.9-2.1l1.7-0.4
			l0.9,2.1l3.2-0.7l0.6,1.4l-3.2,0.7l1.6,3.8c0.4,0.8,0.9,1,1.5,0.9c0.6-0.1,0.8-0.4,0.8-1.1L272.6,257z"/>
		<path d="M281.8,256.9c-0.3,0.2-0.6,0.3-1,0.4c-0.9,0.2-1.5,0-2-0.6c-0.3,0.8-1,1.3-2.2,1.5c-1.6,0.3-3-0.2-3.5-1.6
			c-0.7-1.6,0.4-2.7,2.8-3.2c0.4-0.1,0.9-0.2,1.4-0.2l-0.2-0.6c-0.4-1-1.1-1.3-2.3-1.1c-0.9,0.2-1.3,0.7-1.2,1.3l-1.7,0.1
			c-0.3-1.4,0.4-2.5,2.4-2.9c2.2-0.5,3.7,0.2,4.5,2.1l1.3,3c0.2,0.4,0.4,0.6,0.7,0.5c0.2,0,0.3-0.1,0.4-0.2L281.8,256.9z
			 M278.1,255.4l-0.4-0.9c-0.3,0-0.8,0.1-1.3,0.2c-1.3,0.3-1.9,0.8-1.6,1.5c0.3,0.6,0.9,0.8,1.7,0.6
			C277.5,256.7,278,256.1,278.1,255.4z"/>
		<path d="M278.8,245.7l1.8-0.4l4.6,11l-1.8,0.4L278.8,245.7z"/>
		<path d="M289.5,251.9l-0.9,1.4l0.8,2l-1.8,0.4l-4.6-11l1.8-0.4l2.9,7.1l2.2-4.3l2.1-0.4l-1.8,3.9l5.1,3.5l-2.1,0.5L289.5,251.9z"
			/>
	</g>
	<g>
		<path d="M424.9,218l0.2,8.1l-1.5,0.3l-3.9-4.8l0.3,5.6l-1.6,0.3l-5.8-6.9l2-0.4l3.1,4.1l0.7,1l-0.1-1.1l-0.3-4.7l1.5-0.3l3.3,4
			l0.8,1.1l-0.1-1.2l-0.4-4.6L424.9,218z"/>
		<path d="M427,221.6c-1-2.3,0-4.3,2.6-4.9c2.6-0.6,4.8,0.6,5.8,3c1,2.3,0,4.3-2.6,4.9C430.3,225.1,428,224,427,221.6z M433.6,220.2
			c-0.7-1.6-2-2.4-3.5-2.1c-1.5,0.3-2,1.5-1.3,3.1s2,2.4,3.5,2.1C433.8,222.9,434.3,221.7,433.6,220.2z"/>
		<path d="M440.9,214.4l0.4,1.7c-0.3,0-0.5,0-0.9,0.1c-1.2,0.2-1.7,1-1.5,2.1l1.8,4.3l-1.8,0.4l-3.1-7.5l1.6-0.3l0.6,1.1
			c0.1-0.8,0.7-1.6,1.9-1.9C440.3,214.5,440.6,214.4,440.9,214.4z"/>
		<path d="M447.2,217.9l-0.9,1.4l0.8,2l-1.8,0.4l-4.6-11l1.8-0.4l2.9,7.1l2.2-4.3l2.1-0.4l-1.8,3.9l5.1,3.5l-2.1,0.5L447.2,217.9z"
			/>
		<path d="M452.5,218l1.5-0.6c0.6,0.8,1.2,0.9,2.5,0.7c1.2-0.2,1.6-0.6,1.4-1.3c-0.3-0.6-0.8-0.7-2.8-0.6c-2,0.2-3.3-0.4-3.8-1.7
			c-0.6-1.4,0.4-2.5,2.4-3c1.9-0.4,3.3,0,4.3,1.4l-1.5,0.6c-0.5-0.7-1.2-0.9-2.3-0.7c-1,0.2-1.5,0.6-1.2,1.2
			c0.2,0.6,0.7,0.7,2.6,0.6c2.2-0.2,3.3,0.3,3.9,1.7c0.6,1.5-0.2,2.6-2.6,3.1C454.8,219.9,453.5,219.5,452.5,218z"/>
		<path d="M467.9,212l1.9,4.6l-1.8,0.4l-1.9-4.5c-0.4-1-1.3-1.6-2.5-1.3c-1.1,0.2-1.6,1-1.6,1.9l2,4.8l-1.8,0.4l-4.6-11l1.8-0.4
			l1.8,4.4c0.3-0.8,1-1.4,2.2-1.6C465.7,209.1,467.1,210.1,467.9,212z"/>
		<path d="M470,212.4c-1-2.3,0-4.3,2.6-4.9c2.6-0.6,4.8,0.6,5.8,3c1,2.3,0,4.3-2.6,4.9C473.3,216,471,214.9,470,212.4z M476.7,211
			c-0.7-1.6-2-2.4-3.5-2.1c-1.5,0.3-2,1.5-1.3,3.1s2,2.4,3.5,2.1C476.8,213.8,477.3,212.6,476.7,211z"/>
		<path d="M488.4,208.4c1.1,2.7-0.1,4.4-2.2,4.8c-1.1,0.2-2.1,0.1-2.9-0.4l1.6,3.8l-1.8,0.4l-4.3-10.5l1.6-0.3l0.6,1.1
			c0.2-0.9,0.9-1.7,2.2-2C485.3,204.9,487.3,205.8,488.4,208.4z M483.3,206.8c-1.2,0.2-1.6,1-1.6,2l1,2.4c0.6,0.7,1.5,1,2.7,0.8
			c1.4-0.3,2-1.2,1.3-3C485.9,207.1,484.7,206.5,483.3,206.8z"/>
	</g>
	<g>
		<path class="st1" d="M476.7-5.6l-103,21.9c-3.2,0.7-6.8-1.1-8-3.9L336.5-58c-1.2-2.8,5.9-20.6,9.2-21.3l97.5-7
			c3.2-0.7,6.8,1.1,8,3.9l31.8,56.8C484.3-22.7,480-6.3,476.7-5.6z"/>
		<path class="st2" d="M372.3,16.8c-3,0-5.9-1.7-7-4.3l-29.2-70.3c-0.9-2.3,2.5-11.4,5.1-16.5c1.8-3.3,3.2-5.1,4.3-5.4l97.6-7
			c3.4-0.7,7.2,1.1,8.4,4.2l31.8,56.8c1,2.4-1.3,12.6-4,17.6c-0.9,1.8-1.8,2.7-2.6,2.9l-103,21.9C373.3,16.7,372.8,16.8,372.3,16.8z
			 M444.7-86c-0.5,0-0.9,0-1.4,0.1l-97.6,7c-0.3,0.1-1.5,0.6-3.7,5c-3.1,5.9-5.8,14.2-5.1,15.8l29.2,70.3c1.1,2.7,4.5,4.3,7.6,3.7
			L476.7-6c0.3-0.1,1-0.5,2.1-2.5c2.6-5,4.8-14.9,4-16.9l-31.8-56.8C449.9-84.5,447.3-86,444.7-86z"/>
	</g>
	<path class="st4" d="M480.2-20.8L382.5,0c-3.2,0.7-6.8-1.1-8-3.9l-29.6-71.3c-1.2-2.8,0.5-5.7,3.7-6.4l97.6-20.7
		c3.2-0.7,6.8,1.1,8,3.9l29.6,71.3C485.1-24.3,483.4-21.4,480.2-20.8z"/>
	<g>
		<path class="st1" d="M326.8,28.5l-103,21.9c-3.2,0.7-6.8-1.1-8-3.9l-29.2-70.3c-1.2-2.8,5.9-20.6,9.2-21.3l97.5-7
			c3.2-0.7,6.8,1.1,8,3.9l32.6,56C335.2,10.7,330.1,27.9,326.8,28.5z"/>
		<path class="st2" d="M222.4,51c-3,0-5.9-1.7-7-4.3l-29.2-70.3c-0.9-2.3,2.5-11.4,5.1-16.5c1.8-3.3,3.2-5.1,4.3-5.4l97.6-7
			c3.4-0.7,7.2,1.1,8.4,4.2l32.6,56c1,2.5-1.9,13-4.5,18c-1.1,2-2,3.1-2.9,3.3l-103,21.9C223.4,50.9,222.9,51,222.4,51z M294.8-51.8
			c-0.5,0-0.9,0-1.4,0.1l-97.6,7c-0.3,0.1-1.5,0.6-3.7,5c-3.1,5.9-5.8,14.2-5.1,15.8l29.2,70.3c1.1,2.7,4.5,4.3,7.6,3.7l103-21.9
			c0.3-0.1,1.1-0.5,2.3-2.9c2.9-5.5,5.3-15.4,4.5-17.3L301-48C300-50.3,297.4-51.8,294.8-51.8z"/>
	</g>
	<path class="st5" d="M330.3,13.4l-97.6,20.7c-3.2,0.7-6.8-1.1-8-3.9L195-41c-1.2-2.8,0.5-5.7,3.7-6.4l97.6-20.7
		c3.2-0.7,6.8,1.1,8,3.9L334,7C335.2,9.9,333.5,12.7,330.3,13.4z"/>
	<g>
		<path class="st1" d="M176.2,61l-103,21.9c-3.2,0.7-6.8-1.1-8-3.9L36,8.7c-1.2-2.8,5.9-20.6,9.2-21.3l97.5-7c3.2-0.7,6.8,1.1,8,3.9
			l32.6,56.8C184.5,43.9,179.4,60.3,176.2,61z"/>
		<path class="st2" d="M71.8,83.4c-3,0-5.9-1.7-7-4.3L35.6,8.8c-0.9-2.3,2.5-11.4,5.1-16.5c1.8-3.3,3.2-5.1,4.3-5.4l97.6-7
			c3.4-0.7,7.2,1.1,8.4,4.2l32.6,56.8c1,2.4-1.7,12-4.3,17c-1.1,2.2-2.2,3.3-3.1,3.5l-103,21.9C72.8,83.4,72.3,83.4,71.8,83.4z
			 M144.2-19.4c-0.5,0-0.9,0-1.4,0.1l-97.6,7c-0.3,0.1-1.5,0.6-3.7,5c-3.1,5.9-5.8,14.2-5.1,15.8l29.2,70.3c1.1,2.7,4.5,4.3,7.6,3.7
			l103-21.9c0.3-0.1,1.2-0.5,2.5-3.1c2.7-5.1,5.1-14.3,4.3-16.2l-32.6-56.8C149.4-17.8,146.8-19.4,144.2-19.4z"/>
	</g>
	<path class="st3" d="M179.6,45.9L82,66.6c-3.2,0.7-6.8-1.1-8-3.9L44.4-8.6c-1.2-2.8,0.5-5.7,3.7-6.4l97.6-20.7
		c3.2-0.7,6.8,1.1,8,3.9l29.6,71.3C184.5,42.3,182.9,45.2,179.6,45.9z"/>
	<g>
		<path d="M384.5,112.7l-1.7,0.4l-2.8-6.7l-0.3-1l-0.1,8.2l-1.7,0.4l-6.3-6.8l0.4,0.9l2.8,6.7l-1.7,0.4l-4.2-10l2.4-0.5l6.7,7.3
			l0-8.8l2.3-0.5L384.5,112.7z"/>
		<path d="M384.6,107.2c-1.3-3.2,0.1-5.7,3.3-6.4c3.3-0.7,6.2,0.8,7.6,4c1.3,3.2,0,5.7-3.4,6.4C388.8,112,385.9,110.4,384.6,107.2z
			 M393.6,105.3c-1-2.5-3.1-3.5-5.2-3c-2.1,0.5-3,2.1-2,4.5c1,2.5,3,3.5,5.2,3C393.7,109.4,394.7,107.7,393.6,105.3z"/>
		<path d="M397,104.6c-1.3-3.2,0.1-5.7,3.3-6.4c3.3-0.7,6.2,0.8,7.6,4c1.3,3.2,0,5.7-3.4,6.4C401.2,109.3,398.3,107.8,397,104.6z
			 M406,102.7c-1-2.5-3.1-3.5-5.2-3c-2.1,0.5-3,2.1-2,4.5c1,2.5,3,3.5,5.2,3C406.1,106.7,407.1,105.1,406,102.7z"/>
		<path d="M409.4,102c-1.3-3.2,0-5.7,3.1-6.4c2.6-0.5,4.4,0.2,5.8,2.1l-1.5,0.7c-1-1.3-2.2-1.7-3.7-1.4c-2,0.4-2.9,2-1.9,4.5
			c1,2.5,2.9,3.5,4.9,3.1c1.7-0.4,2.4-1.1,2.3-2.6l1.7,0c0.2,2.1-0.9,3.5-3.5,4C413.4,106.7,410.7,105.2,409.4,102z"/>
	</g>
	<g>
		<path d="M161.7,152l1.9,4.7l-1.8,0.4l-1.9-4.5c-0.4-1-1.3-1.6-2.5-1.3c-1.1,0.2-1.6,1.1-1.5,1.9l0,0.1l1.9,4.7l-1.8,0.4l-1.9-4.5
			c-0.4-1-1.3-1.6-2.5-1.3c-1.1,0.2-1.6,1.1-1.5,1.9l2,4.8l-1.8,0.4l-3.1-7.5l1.6-0.3l0.5,0.9c0.2-0.8,0.9-1.4,2.2-1.7
			c1.4-0.3,2.5,0,3.3,0.9c0.2-0.9,0.9-1.7,2.4-2.1C159.4,149.2,160.9,150.1,161.7,152z"/>
		<path d="M173.3,154.5c-0.3,0.2-0.6,0.3-1,0.4c-0.9,0.2-1.5,0-2-0.6c-0.3,0.8-1,1.3-2.2,1.5c-1.6,0.3-3-0.2-3.5-1.6
			c-0.7-1.6,0.4-2.7,2.8-3.2c0.4-0.1,0.9-0.2,1.4-0.2l-0.2-0.6c-0.4-1-1.1-1.3-2.3-1.1c-0.9,0.2-1.3,0.7-1.2,1.3l-1.7,0.1
			c-0.3-1.4,0.4-2.5,2.4-2.9c2.2-0.5,3.7,0.2,4.5,2.1l1.3,3c0.2,0.4,0.4,0.6,0.7,0.5c0.2,0,0.3-0.1,0.4-0.2L173.3,154.5z M169.6,153
			l-0.4-0.9c-0.3,0-0.8,0.1-1.3,0.2c-1.3,0.3-1.9,0.8-1.6,1.5c0.3,0.6,0.9,0.8,1.7,0.6C169,154.3,169.5,153.8,169.6,153z"/>
		<path d="M173.2,152.4l1.5-0.6c0.6,0.8,1.2,0.9,2.5,0.7c1.2-0.2,1.6-0.6,1.4-1.3c-0.3-0.6-0.8-0.8-2.8-0.6c-2,0.2-3.2-0.4-3.8-1.7
			c-0.6-1.4,0.4-2.5,2.4-3c1.9-0.4,3.3,0,4.3,1.4l-1.5,0.6c-0.5-0.7-1.2-0.9-2.3-0.7c-1,0.2-1.5,0.6-1.2,1.2
			c0.2,0.6,0.7,0.7,2.6,0.6c2.2-0.2,3.3,0.3,3.9,1.7c0.6,1.5-0.2,2.6-2.6,3.1C175.5,154.3,174.2,153.9,173.2,152.4z"/>
		<path d="M188.4,149.5c0.2,1.4-0.5,2.2-2.1,2.5c-1.7,0.4-2.9-0.2-3.6-1.9l-1.6-3.8l-1.8,0.4l-0.6-1.4l1.9-0.4l-0.9-2.1l1.7-0.4
			l0.9,2.1l3.2-0.7l0.6,1.4l-3.2,0.7l1.6,3.8c0.4,0.8,0.9,1,1.5,0.9c0.6-0.1,0.8-0.4,0.8-1.1L188.4,149.5z"/>
		<path d="M196,146.2l-5.9,1.3c0.8,1.5,2,1.9,3.1,1.7c1-0.2,1.5-0.7,1.5-1.5l1.7-0.1c0.2,1.6-1,2.6-2.7,3c-2.4,0.5-4.6-0.5-5.6-3
			c-1-2.4,0-4.4,2.4-4.9c2.2-0.5,4.2,0.5,5.2,2.7C195.9,145.6,195.9,145.9,196,146.2z M189.6,146.1l4.2-0.9
			c-0.6-1.1-1.5-1.6-2.7-1.3C190,144.2,189.4,144.9,189.6,146.1z"/>
		<path d="M201.4,140.4l0.4,1.7c-0.3,0-0.5,0-0.9,0.1c-1.2,0.2-1.7,1-1.5,2.1l1.8,4.3l-1.8,0.4l-3.1-7.5l1.6-0.3l0.6,1.1
			c0.1-0.8,0.7-1.6,1.9-1.9C200.8,140.4,201,140.4,201.4,140.4z"/>
		<path d="M203.4,144.2c-1-2.4,0-4.3,2.3-4.8c2-0.4,3.4,0.1,4.4,1.6l-1.6,0.6c-0.5-0.7-1.3-1-2.2-0.8c-1.5,0.3-1.8,1.5-1.2,3
			c0.7,1.7,1.8,2.4,3.2,2.1c1.1-0.2,1.5-0.7,1.4-1.6l1.7-0.1c0.3,1.6-0.7,2.7-2.6,3.1C206.6,147.7,204.5,146.8,203.4,144.2z"/>
		<path d="M209.6,134.9l1.8-0.4l4.6,11l-1.8,0.4L209.6,134.9z"/>
		<path d="M225.8,143.4c-0.3,0.2-0.6,0.3-1,0.4c-0.9,0.2-1.5,0-2-0.6c-0.3,0.8-1,1.3-2.2,1.5c-1.6,0.3-3-0.2-3.5-1.6
			c-0.7-1.6,0.4-2.7,2.8-3.2c0.4-0.1,0.9-0.2,1.4-0.2l-0.2-0.6c-0.4-1-1.1-1.3-2.3-1.1c-0.9,0.2-1.3,0.7-1.2,1.3l-1.7,0.1
			c-0.3-1.4,0.4-2.5,2.4-2.9c2.2-0.5,3.7,0.2,4.5,2.1l1.3,3c0.2,0.4,0.4,0.6,0.7,0.5c0.2,0,0.3-0.1,0.4-0.2L225.8,143.4z
			 M222.1,141.9l-0.4-0.9c-0.3,0-0.8,0.1-1.3,0.2c-1.3,0.3-1.9,0.8-1.6,1.5c0.3,0.6,0.9,0.8,1.7,0.6
			C221.4,143.2,222,142.6,222.1,141.9z"/>
		<path d="M225.7,141.3l1.5-0.6c0.6,0.8,1.2,0.9,2.5,0.7c1.2-0.2,1.6-0.6,1.4-1.3c-0.3-0.6-0.8-0.8-2.8-0.6c-2,0.2-3.2-0.4-3.8-1.7
			c-0.6-1.4,0.4-2.5,2.4-3c1.9-0.4,3.3,0,4.3,1.4l-1.5,0.6c-0.5-0.7-1.2-0.9-2.3-0.7c-1,0.2-1.5,0.6-1.2,1.2
			c0.2,0.6,0.7,0.7,2.6,0.6c2.2-0.2,3.3,0.3,3.9,1.7c0.6,1.5-0.2,2.6-2.6,3.1C228,143.2,226.6,142.8,225.7,141.3z"/>
		<path d="M233.9,139.6l1.5-0.6c0.6,0.8,1.2,0.9,2.5,0.7c1.2-0.2,1.6-0.6,1.4-1.3c-0.3-0.6-0.8-0.8-2.8-0.6c-2,0.2-3.3-0.4-3.8-1.7
			c-0.6-1.4,0.4-2.5,2.4-3c1.9-0.4,3.3,0,4.3,1.4l-1.5,0.6c-0.5-0.7-1.2-0.9-2.3-0.7c-1,0.2-1.5,0.6-1.2,1.2
			c0.2,0.6,0.7,0.7,2.6,0.6c2.2-0.2,3.3,0.3,3.9,1.7c0.6,1.5-0.2,2.6-2.6,3.1C236.2,141.4,234.8,141,233.9,139.6z"/>
	</g>
	<g>
		<g>
			<path class="st1" d="M390.8,355.8c0,0-15.2,15.3,21.7,37.6c0,0,19.5,11.3,37.9,9.1c0,0,73.8,24.6,93.6,19.6
				c0,0,68.2,34.2,100.8,30l25.6-82c0,0-96.6-17.5-130.2-10.8c-33.6,6.7-70.4-4.6-70.4-4.6s-16.7,0.7-28.6-2.3
				C441.2,352.3,432.5,377,390.8,355.8z"/>
			<path class="st7" d="M638.7,453.6c-13.6,0-32.7-4.6-57-13.9c-19.2-7.3-35.2-15.1-37.9-16.4c-8.6,1.9-26.9-0.8-54.4-8.1
				c-19.4-5.1-36.9-10.8-39.2-11.6c-18.5,2.2-37.5-8.8-38.3-9.3c-15.7-9.5-24.2-18.9-25.3-28.1c-0.9-7.1,3.2-11.3,3.3-11.4l0.6-0.6
				l0.8,0.4c15.9,8.1,29.2,10.4,38.5,6.8c7.8-3.1,10.2-9.5,10.2-9.5l0.4-1l1.1,0.3c11.5,2.8,28.1,2.2,28.3,2.2l0.2,0l0.2,0.1
				c0.4,0.1,37,11.2,69.8,4.6c33.4-6.7,126.7,10.1,130.7,10.8l1.4,0.2l-26.3,84.1l-0.8,0.1C643,453.5,640.9,453.6,638.7,453.6z
				 M544.1,420.7l0.4,0.2c0.7,0.3,67.2,33.4,99.3,30l25-79.9c-5.5-1-26.9-4.7-51.1-7.7c-37-4.6-63.7-5.6-77.3-2.9
				c-32.2,6.5-67.8-3.7-70.8-4.6c-2,0.1-16.5,0.5-27.7-2.1c-1.1,2.2-4.1,7.2-11.1,9.9c-9.9,4-23.2,1.8-39.7-6.4
				c-0.9,1.3-2.7,4.3-2.1,8.8c0.7,5.7,5.5,15,24.1,26.2c0.2,0.1,19.3,11.1,37.1,8.9l0.3,0l0.3,0.1c0.7,0.2,73.7,24.4,92.9,19.6
				L544.1,420.7z"/>
		</g>
		<g>
			<path class="st1" d="M390.8,355.8c0,0-0.4-4.1,11.6-7.1c20.9-5.3,38.8,3.7,38.8,3.7S432.9,377.7,390.8,355.8z"/>
			<path class="st7" d="M420.3,365.9c-8.4,0-18.5-3-30.1-9.1l-0.6-0.3l-0.1-0.7c-0.1-0.9,0.1-5.3,12.5-8.5
				c21.1-5.4,38.9,3.4,39.6,3.8l0.9,0.5l-0.3,1c-0.1,0.3-2.6,7.7-11.4,11.3C427.8,365.3,424.2,365.9,420.3,365.9z M392.2,355.1
				c15.7,8,28.7,10.3,37.7,6.6c5.9-2.4,8.7-6.8,9.6-8.8c-4.1-1.8-19.6-7.6-36.9-3.1C394.9,351.8,392.8,354.1,392.2,355.1z"/>
		</g>
	</g>
	<path class="st0" d="M148.8,355.5c-0.9,0-1.7-0.5-1.9-1.4l-4.6-13.8c-0.4-1.1,0.2-2.2,1.3-2.6c1.1-0.4,2.2,0.2,2.6,1.3l4.6,13.8
		c0.4,1.1-0.2,2.2-1.3,2.6C149.2,355.5,149,355.5,148.8,355.5z"/>
	<path class="st5" d="M136.3,357.5c-0.3,0-0.6-0.1-0.8-0.2l-8.5-3.9c-1-0.5-1.5-1.7-1-2.7c0.5-1,1.7-1.5,2.7-1l8.5,3.9
		c1,0.5,1.5,1.7,1,2.7C137.8,357.1,137.1,357.5,136.3,357.5z"/>
	<path class="st3" d="M127,372.7c-0.9,0-1.7-0.6-2-1.5c-0.3-1.1,0.4-2.2,1.5-2.5l14.1-3.6c1.1-0.3,2.2,0.4,2.5,1.5
		c0.3,1.1-0.4,2.2-1.5,2.5l-14.1,3.6C127.4,372.7,127.2,372.7,127,372.7z"/>
	<g>
		<path class="st1" d="M472.3,373.2c0,0-1.5-2.7,2.4-4.4c3.9-1.8,5-4.4,5-5.3"/>
		<path class="st7" d="M471.2,373.8c-0.1-0.1-0.8-1.4-0.2-3c0.4-1.3,1.5-2.3,3.2-3.1c3.5-1.6,4.3-3.9,4.3-4.2l2.4,0
			c0,1.5-1.6,4.5-5.7,6.4c-1,0.5-1.7,1-1.9,1.7c-0.2,0.6,0.1,1.1,0.1,1.1L471.2,373.8z"/>
	</g>
	<g>
		<path class="st1" d="M477.8,373.2c0,0-1.5-2.7,2.4-4.4c3.9-1.8,5-4.4,5-5.3"/>
		<path class="st7" d="M476.8,373.8c-0.1-0.1-0.8-1.4-0.2-3c0.4-1.3,1.5-2.3,3.2-3.1c3.5-1.6,4.3-3.9,4.3-4.2l2.4,0
			c0,1.5-1.6,4.5-5.7,6.4c-1,0.5-1.6,1-1.9,1.6c-0.2,0.6,0,1.1,0.1,1.1L476.8,373.8z"/>
	</g>
</g>
</svg>
