<?xml version="1.0" encoding="UTF-8"?>
<svg enable-background="new 0 0 272.1 52.2" version="1.1" viewBox="0 0 272.1 52.2" xml:space="preserve" xmlns="http://www.w3.org/2000/svg">
<style type="text/css">
	.st0{fill:#FFFFFF;}
</style>

	
		<path class="st0" d="m40 50.8c-1.4 0.8-3.8 1.3-6.4 1.3-5.4 0-8.6-2.7-11.3-7.8l-3.4-6.4h-1c-1.5 0-3.1-0.1-4.6-0.2v13.3h-13.3v-46.6h20.5c11.8 0 18.3 5.9 18.3 16.1 0 6.6-2.4 11.4-7.1 14.2l2.1 3.2c1.2 1.8 2.3 2.2 3.6 2.2 0.7 0 1.5-0.1 1.9-0.3l0.7 11zm-26.7-24.1c1.4 0.1 2.9 0.2 4.3 0.2 5.2 0 8-1.7 8-5.3 0.1-3.4-2.3-5.2-6.5-5.2h-5.8v10.3z"/>
		<path class="st0" d="m78.3 47c-3.8 3-8.4 5.1-16.9 5.1-10.8 0-18.1-5.7-18.1-17.4 0-11.4 7.1-19.6 19.7-19.6 9.5 0 14.3 4.7 14.4 10.9 0.2 7.8-6.3 12.1-19.8 12.6 1.2 2.1 3.2 2.5 6.2 2.5 3.1 0 6.4-0.8 9.4-2.9l5.1 8.8zm-21.7-16.1c5-0.2 8.5-0.8 8.5-3.5 0-1.5-1.3-2.2-3.1-2.2-3 0-5 1.9-5.4 5.7z"/>
		<path class="st0" d="m120.3 33.4c0 12.2-6.7 18.8-15.1 18.8-4.5 0-8-1.5-10.3-4.9l-0.3 3.7h-11.7v-51h13.1v19.2c2.3-2.7 5.5-4 9.3-4 8.9 0 15 6.5 15 18.2zm-19.1-6.9c-2.5 0-4.3 1.3-5.2 3.6v7c0.6 2.6 2.7 3.8 5.4 3.8 3.4 0 5.6-2.4 5.7-7.2s-2.4-7.2-5.9-7.2z"/>
		<path class="st0" d="m123.8 33.9c0-11 7.6-18.7 19.4-18.7s18.8 6.8 18.8 18.3c0 11-7.6 18.7-19.3 18.7s-18.9-6.8-18.9-18.3zm25.1-0.2c0-4.5-2.2-7.2-5.9-7.2-3.9 0-6 2.7-6 7.2 0 4.6 2.1 7.2 6 7.2 3.7 0 5.9-2.6 5.9-7.2z"/>
		<path class="st0" d="m165.1 33.9c0-11 7.6-18.7 19.4-18.7s18.9 6.8 18.9 18.3c0 11-7.6 18.7-19.3 18.7-11.8 0-19-6.8-19-18.3zm25.2-0.2c0-4.5-2.2-7.2-5.9-7.2-3.9 0-6 2.7-6 7.2 0 4.6 2.1 7.2 6 7.2 3.7 0 5.9-2.6 5.9-7.2z"/>
		<path class="st0" d="m236.7 47.8c-2.8 2.9-7 4.4-11.7 4.4-8.3 0-13.9-3.6-13.9-13v-12.3h-5.7v-10.3c5.4-0.5 7.2-1.9 7.8-9.3h11v9.1h10.1v10.5h-10.1v9.5c0 2.6 1.5 3.5 3.8 3.5 1.5 0 2.6-0.5 3.6-1.4l5.1 9.3z"/>
		<path class="st0" d="m252 44c0-4.7 3.6-8 8.1-8s7.8 3.4 7.8 8-3.4 8.1-7.8 8.1c-4.5 0.1-8.1-3.4-8.1-8.1zm1.4-26.6v-17.4h13v17.4l-1.1 15.5h-11l-0.9-15.5z"/>
	

</svg>
